<svg xmlns="http://www.w3.org/2000/svg" viewBox="0 0 17 14"><path fill="#d2d2d2" fill-rule="evenodd" d="M17 1.686a7.1 7.1 0 01-1.97.533l-.016-.037A3.569 3.569 0 0016.592.259a7.658 7.658 0 01-2.236.892 3.567 3.567 0 00-6.2 2.393c0 .136.065.7.076.732A9.466 9.466 0 01.947.61a3.759 3.759 0 00.929 4.787 3.72 3.72 0 01-1.425-.308 3.722 3.722 0 002.937 3.429 3.708 3.708 0 01-1.724-.035 3.727 3.727 0 003.348 2.526 8.258 8.258 0 01-5.01 1.572 9.951 9.951 0 005.183 1.425 10.054 10.054 0 0010.085-10.6A3.569 3.569 0 0017 1.686"/></svg>